<svg>
   <def>
      <symbol xmlns="http://www.w3.org/2000/svg" viewBox="0 0 24 24" id="moon">
         <path fill="currentColor"
            d="M12 1.992a10 10 0 1 0 9.236 13.838c.341-.82-.476-1.644-1.298-1.31a6.5 6.5 0 0 1-6.864-10.787l.077-.08c.551-.63.113-1.653-.758-1.653h-.266l-.068-.006z"></path>
      </symbol>

      <symbol xmlns="http://www.w3.org/2000/svg" viewBox="0 0 24 24" id="church">
         <g fill="none" stroke="currentColor" stroke-linecap="round" stroke-linejoin="round"
            stroke-width="1.5">
            <path
               d="M12 2v4m2-2h-4M8.501 8.799L12 6l3.499 2.799C16.717 9.774 17 10.362 17 11.923V22H7V11.923c0-1.56.283-2.15 1.501-3.124M17 12l1.789.894c1.076.538 1.614.807 1.912 1.29c.299.484.299 1.085.299 2.288V20c0 .943 0 1.414-.293 1.707S19.943 22 19 22h-2M7 12l-1.789.894c-1.076.538-1.614.807-1.912 1.29C3 14.669 3 15.27 3 16.473V20c0 .943 0 1.414.293 1.707S4.057 22 5 22h2"></path>
            <path d="M10 22v-4a2 2 0 1 1 4 0v4m-1.992-11h-.009"></path>
         </g>
      </symbol>

      <symbol fill="none" xmlns="http://www.w3.org/2000/svg" viewBox="0 0 16 17" id="car">
         <path
            d="M10.3403 2.38672H5.66033C4.00033 2.38672 3.63366 3.21339 3.42033 4.22672L2.66699 7.83339H13.3337L12.5803 4.22672C12.367 3.21339 12.0003 2.38672 10.3403 2.38672Z"
            stroke="currentColor" stroke-linecap="round" stroke-linejoin="round"></path>
         <path
            d="M14.6598 13.713C14.7332 14.493 14.1065 15.1663 13.3065 15.1663H12.0532C11.3332 15.1663 11.2332 14.8597 11.1065 14.4797L10.9732 14.0797C10.7865 13.533 10.6665 13.1663 9.70649 13.1663H6.29316C5.33316 13.1663 5.19316 13.5797 5.02649 14.0797L4.89316 14.4797C4.76649 14.8597 4.66649 15.1663 3.94649 15.1663H2.69316C1.89316 15.1663 1.26649 14.493 1.33982 13.713L1.71316 9.65301C1.80649 8.65301 1.99982 7.83301 3.74649 7.83301H12.2532C13.9998 7.83301 14.1932 8.65301 14.2865 9.65301L14.6598 13.713Z"
            stroke="currentColor" stroke-linecap="round" stroke-linejoin="round"></path>
         <path d="M2.66667 5.83301H2" stroke="currentColor" stroke-linecap="round"
            stroke-linejoin="round"></path>
         <path d="M13.9997 5.83301H13.333" stroke="currentColor" stroke-linecap="round"
            stroke-linejoin="round"></path>
         <path d="M8 2.5V3.83333" stroke="currentColor" stroke-linecap="round"
            stroke-linejoin="round"></path>
         <path d="M7 3.83301H9" stroke="currentColor" stroke-linecap="round" stroke-linejoin="round"></path>
         <path d="M4 10.5H6" stroke="currentColor" stroke-linecap="round" stroke-linejoin="round"></path>
         <path d="M10 10.5H12" stroke="currentColor" stroke-linecap="round" stroke-linejoin="round"></path>
      </symbol>

      <symbol fill="none" xmlns="http://www.w3.org/2000/svg" viewBox="0 0 16 17" id="user-tick">
         <path
            d="M8.00033 8.49967C9.84127 8.49967 11.3337 7.00729 11.3337 5.16634C11.3337 3.32539 9.84127 1.83301 8.00033 1.83301C6.15938 1.83301 4.66699 3.32539 4.66699 5.16634C4.66699 7.00729 6.15938 8.49967 8.00033 8.49967Z"
            stroke="currentColor" stroke-width="1.2" stroke-linecap="round" stroke-linejoin="round"></path>
         <path
            d="M2.27344 15.1667C2.27344 12.5867 4.8401 10.5 8.0001 10.5C8.6401 10.5 9.26011 10.5867 9.84011 10.7467"
            stroke="currentColor" stroke-width="1.2" stroke-linecap="round" stroke-linejoin="round"></path>
         <path
            d="M14.6663 12.4997C14.6663 12.9997 14.5264 13.473 14.2797 13.873C14.1397 14.113 13.9597 14.3263 13.753 14.4997C13.2863 14.9197 12.673 15.1663 11.9997 15.1663C11.0263 15.1663 10.1797 14.6463 9.71967 13.873C9.473 13.473 9.33301 12.9997 9.33301 12.4997C9.33301 11.6597 9.71967 10.9063 10.333 10.4197C10.793 10.053 11.373 9.83301 11.9997 9.83301C13.473 9.83301 14.6663 11.0263 14.6663 12.4997Z"
            stroke="currentColor" stroke-width="1.2" stroke-miterlimit="10"
            stroke-linecap="round"
            stroke-linejoin="round"></path>
         <path d="M10.96 12.5L11.62 13.16L13.04 11.8467" stroke="currentColor" stroke-width="1.2"
            stroke-linecap="round" stroke-linejoin="round"></path>
      </symbol>

      <symbol xmlns="http://www.w3.org/2000/svg" viewBox="0 0 24 24" id="routing">
         <path fill="currentColor" fill-rule="evenodd"
            d="M18.5 14c-1.933 0-3.5 1.458-3.5 3.257c0 1.785 1.117 3.868 2.86 4.613c.406.173.874.173 1.28 0c1.743-.745 2.86-2.828 2.86-4.613C22 15.458 20.433 14 18.5 14m0 4.5a1 1 0 1 0 0-2a1 1 0 0 0 0 2M5.5 2C3.567 2 2 3.458 2 5.257C2 7.042 3.117 9.125 4.86 9.87c.406.173.874.173 1.28 0C7.883 9.125 9 7.042 9 5.257C9 3.458 7.433 2 5.5 2m0 4.5a1 1 0 1 0 0-2a1 1 0 0 0 0 2M11.25 5a.75.75 0 0 1 .75-.75h4.132c2.751 0 3.797 3.593 1.476 5.07l-10.41 6.625c-1.056.672-.58 2.305.67 2.305h2.321l-.22-.22a.75.75 0 1 1 1.061-1.06l1.5 1.5a.75.75 0 0 1 0 1.06l-1.5 1.5a.75.75 0 1 1-1.06-1.06l.22-.22H7.867c-2.751 0-3.797-3.593-1.476-5.07l10.411-6.625c1.055-.672.58-2.305-.671-2.305H12a.75.75 0 0 1-.75-.75"
            clip-rule="evenodd"></path>
      </symbol>

      <symbol xmlns="http://www.w3.org/2000/svg" viewBox="0 0 24 24" id="bus">
         <path fill="currentColor"
            d="M8.5 17a1 1 0 0 0 1-1a1.4 1.4 0 0 0 0-.2a.6.6 0 0 0-.06-.18a.8.8 0 0 0-.09-.18l-.12-.15a1 1 0 0 0-.33-.21a1 1 0 0 0-.6-.08l-.18.06l-.18.09a2 2 0 0 0-.15.12l-.12.15a.8.8 0 0 0-.09.18a.6.6 0 0 0-.06.18a1.4 1.4 0 0 0 0 .2a1 1 0 0 0 1 1Zm8 0a1 1 0 0 0 1-1a1.4 1.4 0 0 0 0-.2a.6.6 0 0 0-.06-.18a.8.8 0 0 0-.09-.18l-.12-.15a1.2 1.2 0 0 0-.33-.21a1 1 0 0 0-.76 0a1.2 1.2 0 0 0-.33.21l-.12.15a.8.8 0 0 0-.09.18a.6.6 0 0 0-.06.18a1.4 1.4 0 0 0 0 .2a1 1 0 0 0 .29.7a1 1 0 0 0 .67.3m-3-12h-2a1 1 0 0 0 0 2h2a1 1 0 0 0 0-2m5-3h-12a3 3 0 0 0-3 3v12a3 3 0 0 0 2 2.82V21a1 1 0 0 0 2 0v-1h10v1a1 1 0 0 0 2 0v-1.18a3 3 0 0 0 2-2.82V5a3 3 0 0 0-3-3m1 15a1 1 0 0 1-1 1h-12a1 1 0 0 1-1-1v-3h14Zm0-5h-14V5a1 1 0 0 1 1-1h12a1 1 0 0 1 1 1Z"></path>
      </symbol>

      <symbol xmlns="http://www.w3.org/2000/svg" viewBox="0 0 24 24" id="calendar">
         <path fill="currentColor"
            d="M17 14a1 1 0 1 0 0-2a1 1 0 0 0 0 2m0 4a1 1 0 1 0 0-2a1 1 0 0 0 0 2m-4-5a1 1 0 1 1-2 0a1 1 0 0 1 2 0m0 4a1 1 0 1 1-2 0a1 1 0 0 1 2 0m-6-3a1 1 0 1 0 0-2a1 1 0 0 0 0 2m0 4a1 1 0 1 0 0-2a1 1 0 0 0 0 2"></path>
         <path fill="currentColor" fill-rule="evenodd"
            d="M7 1.75a.75.75 0 0 1 .75.75v.763c.662-.013 1.391-.013 2.193-.013h4.113c.803 0 1.532 0 2.194.013V2.5a.75.75 0 0 1 1.5 0v.827q.39.03.739.076c1.172.158 2.121.49 2.87 1.238c.748.749 1.08 1.698 1.238 2.87c.153 1.14.153 2.595.153 4.433v2.112c0 1.838 0 3.294-.153 4.433c-.158 1.172-.49 2.121-1.238 2.87c-.749.748-1.698 1.08-2.87 1.238c-1.14.153-2.595.153-4.433.153H9.945c-1.838 0-3.294 0-4.433-.153c-1.172-.158-2.121-.49-2.87-1.238c-.748-.749-1.08-1.698-1.238-2.87c-.153-1.14-.153-2.595-.153-4.433v-2.112c0-1.838 0-3.294.153-4.433c.158-1.172.49-2.121 1.238-2.87c.749-.748 1.698-1.08 2.87-1.238q.35-.046.739-.076V2.5A.75.75 0 0 1 7 1.75M5.71 4.89c-1.005.135-1.585.389-2.008.812S3.025 6.705 2.89 7.71q-.034.255-.058.539h18.336q-.024-.284-.058-.54c-.135-1.005-.389-1.585-.812-2.008s-1.003-.677-2.009-.812c-1.027-.138-2.382-.14-4.289-.14h-4c-1.907 0-3.261.002-4.29.14M2.75 12c0-.854 0-1.597.013-2.25h18.474c.013.653.013 1.396.013 2.25v2c0 1.907-.002 3.262-.14 4.29c-.135 1.005-.389 1.585-.812 2.008s-1.003.677-2.009.812c-1.027.138-2.382.14-4.289.14h-4c-1.907 0-3.261-.002-4.29-.14c-1.005-.135-1.585-.389-2.008-.812s-.677-1.003-.812-2.009c-.138-1.027-.14-2.382-.14-4.289z"
            clip-rule="evenodd"></path>
      </symbol>

      <symbol xmlns="http://www.w3.org/2000/svg" viewBox="0 0 24 24" id="speaker">
         <g fill="none" stroke="currentColor" stroke-width="2">
            <path
               d="M4 10c0-3.771 0-5.657 1.172-6.828S8.229 2 12 2s5.657 0 6.828 1.172S20 6.229 20 10v4c0 3.771 0 5.657-1.172 6.828S15.771 22 12 22s-5.657 0-6.828-1.172S4 17.771 4 14z"></path>
            <path d="M14 7.5a2 2 0 1 1-4 0a2 2 0 0 1 4 0Zm1 8a3 3 0 1 1-6 0a3 3 0 0 1 6 0Z"></path>
         </g>
      </symbol>


      <symbol xmlns="http://www.w3.org/2000/svg" viewBox="0 0 24 24" id="bell">
         <path fill="currentColor"
            d="M12 4.5a.5.5 0 0 0-.5-.5a.5.5 0 0 0-.5.5v1.53c-2.25.25-4 2.15-4 4.47v5.91L5.41 18h12.18L16 16.41V10.5c0-2.32-1.75-4.22-4-4.47zM11.5 3A1.5 1.5 0 0 1 13 4.5v.71c2.31.65 4 2.79 4 5.29V16l3 3H3l3-3v-5.5C6 8 7.69 5.86 10 5.21V4.5A1.5 1.5 0 0 1 11.5 3m0 19a2.5 2.5 0 0 1-2.45-2h1.04a1.495 1.495 0 0 0 2.82 0h1.04a2.5 2.5 0 0 1-2.45 2"></path>
      </symbol>

      <symbol xmlns="http://www.w3.org/2000/svg" viewBox="0 0 24 24" id="close">
         <path fill="currentColor"
            d="M19 6.41L17.59 5L12 10.59L6.41 5L5 6.41L10.59 12L5 17.59L6.41 19L12 13.41L17.59 19L19 17.59L13.41 12z"></path>
      </symbol>

      <symbol xmlns="http://www.w3.org/2000/svg" viewBox="0 0 24 24" id="menu">
         <path fill="none" stroke="currentColor" stroke-linecap="round" stroke-linejoin="round"
            stroke-width="1" d="M7 6h10M4 12h16M7 12h13M7 18h10"></path>
      </symbol>

      <symbol fill="none" xmlns="http://www.w3.org/2000/svg" viewBox="0 0 20 20"
         id="search">
         <path
            d="M9.16699 16.6667C13.3091 16.6667 16.667 13.3089 16.667 9.16675C16.667 5.02461 13.3091 1.66675 9.16699 1.66675C5.02486 1.66675 1.66699 5.02461 1.66699 9.16675C1.66699 13.3089 5.02486 16.6667 9.16699 16.6667Z"
            stroke="currentColor" stroke-width="1.25" stroke-linecap="round" stroke-linejoin="round"></path>
         <path
            d="M15.774 17.2406C16.2157 18.5739 17.224 18.7073 17.999 17.5406C18.7074 16.4739 18.2407 15.5989 16.9574 15.5989C16.0074 15.5906 15.474 16.3323 15.774 17.2406Z"
            stroke="currentColor" stroke-width="1.25" stroke-linecap="round" stroke-linejoin="round"></path>
      </symbol>

      <symbol fill="none" xmlns="http://www.w3.org/2000/svg" viewBox="0 0 16 16" id="arrow-down">
         <path
            d="M13.2797 5.96655L8.93306 10.3132C8.41973 10.8266 7.57973 10.8266 7.06639 10.3132L2.71973 5.96655"
            stroke="currentColor" stroke-width="1.03125" stroke-miterlimit="10"
            stroke-linecap="round"
            stroke-linejoin="round"></path>
      </symbol>

      <symbol fill="none" xmlns="http://www.w3.org/2000/svg" viewBox="0 0 12 12" id="arrow-right">
         <path
            d="M4.45508 9.96004L7.71508 6.70004C8.10008 6.31504 8.10008 5.68504 7.71508 5.30004L4.45508 2.04004"
            stroke="#1D2939" stroke-miterlimit="10" stroke-linecap="round"
            stroke-linejoin="round"></path>
      </symbol>


      <symbol fill="none" xmlns="http://www.w3.org/2000/svg" viewBox="0 0 16 16" id="dotted-menu">
         <path
            d="M3.33333 6.6665C2.6 6.6665 2 7.2665 2 7.99984C2 8.73317 2.6 9.33317 3.33333 9.33317C4.06667 9.33317 4.66667 8.73317 4.66667 7.99984C4.66667 7.2665 4.06667 6.6665 3.33333 6.6665Z"
            stroke="currentColor"></path>
         <path
            d="M12.6663 6.6665C11.933 6.6665 11.333 7.2665 11.333 7.99984C11.333 8.73317 11.933 9.33317 12.6663 9.33317C13.3997 9.33317 13.9997 8.73317 13.9997 7.99984C13.9997 7.2665 13.3997 6.6665 12.6663 6.6665Z"
            stroke="currentColor"></path>
         <path
            d="M8.00033 6.6665C7.26699 6.6665 6.66699 7.2665 6.66699 7.99984C6.66699 8.73317 7.26699 9.33317 8.00033 9.33317C8.73366 9.33317 9.33366 8.73317 9.33366 7.99984C9.33366 7.2665 8.73366 6.6665 8.00033 6.6665Z"
            stroke="currentColor"></path>
      </symbol>

      <symbol fill="none" xmlns="http://www.w3.org/2000/svg" viewBox="0 0 20 21"
         id="document-text">
         <path
            d="M18.3337 8.83317V12.9998C18.3337 17.1665 16.667 18.8332 12.5003 18.8332H7.50033C3.33366 18.8332 1.66699 17.1665 1.66699 12.9998V7.99984C1.66699 3.83317 3.33366 2.1665 7.50033 2.1665H11.667"
            stroke="currentColor" stroke-width="1.25" stroke-linecap="round"
            stroke-linejoin="round"></path>
         <path
            d="M18.3337 8.83317H15.0003C12.5003 8.83317 11.667 7.99984 11.667 5.49984V2.1665L18.3337 8.83317Z"
            stroke="currentColor" stroke-width="1.25" stroke-linecap="round"
            stroke-linejoin="round"></path>
         <path d="M5.83301 11.3335H10.833" stroke="currentColor" stroke-width="1.25"
            stroke-linecap="round" stroke-linejoin="round"></path>
         <path d="M5.83301 14.6665H9.16634" stroke="currentColor" stroke-width="1.25"
            stroke-linecap="round" stroke-linejoin="round"></path>
      </symbol>

      <symbol xmlns="http://www.w3.org/2000/svg" viewBox="0 0 24 24"
         id="star">
         <path fill="currentColor"
            d="m12 17.275l-4.15 2.5q-.275.175-.575.15t-.525-.2t-.35-.437t-.05-.588l1.1-4.725L3.775 10.8q-.25-.225-.312-.513t.037-.562t.3-.45t.55-.225l4.85-.425l1.875-4.45q.125-.3.388-.45t.537-.15t.537.15t.388.45l1.875 4.45l4.85.425q.35.05.55.225t.3.45t.038.563t-.313.512l-3.675 3.175l1.1 4.725q.075.325-.05.588t-.35.437t-.525.2t-.575-.15z"></path>
      </symbol>

      <symbol fill="none" xmlns="http://www.w3.org/2000/svg" viewBox="0 0 16 17" id="eye">
         <path
            d="M10.3866 8.49995C10.3866 9.81995 9.31995 10.8866 7.99995 10.8866C6.67995 10.8866 5.61328 9.81995 5.61328 8.49995C5.61328 7.17995 6.67995 6.11328 7.99995 6.11328C9.31995 6.11328 10.3866 7.17995 10.3866 8.49995Z"
            stroke="currentCOlor" stroke-width="1.25" stroke-linecap="round" stroke-linejoin="round"></path>
         <path
            d="M7.9999 14.0133C10.3532 14.0133 12.5466 12.6266 14.0732 10.2266C14.6732 9.28665 14.6732 7.70665 14.0732 6.76665C12.5466 4.36665 10.3532 2.97998 7.9999 2.97998C5.64656 2.97998 3.45323 4.36665 1.92656 6.76665C1.32656 7.70665 1.32656 9.28665 1.92656 10.2266C3.45323 12.6266 5.64656 14.0133 7.9999 14.0133Z"
            stroke="currentCOlor" stroke-width="1.25" stroke-linecap="round" stroke-linejoin="round"></path>
      </symbol>

      <symbol fill="none" xmlns="http://www.w3.org/2000/svg" viewBox="0 0 16 17" id="trash">
         <path
            d="M14.001 4.48617C11.781 4.26617 9.54764 4.15283 7.32098 4.15283C6.00098 4.15283 4.68098 4.2195 3.36098 4.35283L2.00098 4.48617"
            stroke="currentColor" stroke-width="1.03125" stroke-linecap="round"
            stroke-linejoin="round"></path>
         <path
            d="M5.66602 3.8135L5.81268 2.94016C5.91935 2.30683 5.99935 1.8335 7.12602 1.8335H8.87268C9.99935 1.8335 10.086 2.3335 10.186 2.94683L10.3327 3.8135"
            stroke="currentColor" stroke-width="1.03125" stroke-linecap="round"
            stroke-linejoin="round"></path>
         <path
            d="M12.565 6.59375L12.1316 13.3071C12.0583 14.3537 11.9983 15.1671 10.1383 15.1671H5.85831C3.99831 15.1671 3.93831 14.3537 3.86497 13.3071L3.43164 6.59375"
            stroke="currentColor" stroke-width="1.03125" stroke-linecap="round"
            stroke-linejoin="round"></path>
         <path d="M6.88574 11.5H9.10574" stroke="currentColor" stroke-width="1.03125"
            stroke-linecap="round" stroke-linejoin="round"></path>
         <path d="M6.33203 8.83301H9.66536" stroke="currentColor" stroke-width="1.03125"
            stroke-linecap="round" stroke-linejoin="round"></path>
      </symbol>

      <symbol fill="none" xmlns="http://www.w3.org/2000/svg" viewBox="0 0 18 18" id="edit">
         <path
            d="M9.91853 2.8755L3.93207 9.21196C3.70603 9.45259 3.48728 9.92655 3.44353 10.2547L3.17374 12.6172C3.07895 13.4703 3.69145 14.0536 4.53728 13.9078L6.8852 13.5068C7.21332 13.4484 7.6727 13.2078 7.89874 12.9599L13.8852 6.62342C14.9206 5.52967 15.3873 4.2828 13.7758 2.75884C12.1717 1.24946 10.9539 1.78175 9.91853 2.8755Z"
            stroke="currentColor" stroke-width="1.09375" stroke-miterlimit="10"
            stroke-linecap="round"
            stroke-linejoin="round"></path>
         <path d="M8.91992 3.93262C9.23346 5.94512 10.8668 7.48366 12.8939 7.68783"
            stroke="currentColor" stroke-width="1.09375" stroke-miterlimit="10"
            stroke-linecap="round"
            stroke-linejoin="round"></path>
         <path d="M2.4375 16.292H15.5625" stroke="currentColor" stroke-width="1.09375"
            stroke-miterlimit="10" stroke-linecap="round" stroke-linejoin="round"></path>
      </symbol>

      <symbol xmlns="http://www.w3.org/2000/svg" fill="none" stroke="currentColor"
         stroke-width="2" stroke-linecap="round" stroke-linejoin="round" viewBox="0 0 24 24"
         id="eye-off">
         <path
            d="M10.733 5.076a10.744 10.744 0 0 1 11.205 6.575 1 1 0 0 1 0 .696 10.747 10.747 0 0 1-1.444 2.49"></path>
         <path d="M14.084 14.158a3 3 0 0 1-4.242-4.242"></path>
         <path
            d="M17.479 17.499a10.75 10.75 0 0 1-15.417-5.151 1 1 0 0 1 0-.696 10.75 10.75 0 0 1 4.446-5.143"></path>
         <path d="m2 2 20 20"></path>
      </symbol>

      <symbol fill="none" xmlns="http://www.w3.org/2000/svg" viewBox="0 0 16 16" id="eye">
         <path
            d="M10.3866 7.99995C10.3866 9.31995 9.31995 10.3866 7.99995 10.3866C6.67995 10.3866 5.61328 9.31995 5.61328 7.99995C5.61328 6.67995 6.67995 5.61328 7.99995 5.61328C9.31995 5.61328 10.3866 6.67995 10.3866 7.99995Z"
            stroke="currentColor" stroke-width="1.25" stroke-linecap="round" stroke-linejoin="round"></path>
         <path
            d="M7.9999 13.5138C10.3532 13.5138 12.5466 12.1271 14.0732 9.72714C14.6732 8.78714 14.6732 7.20714 14.0732 6.26714C12.5466 3.86714 10.3532 2.48047 7.9999 2.48047C5.64656 2.48047 3.45323 3.86714 1.92656 6.26714C1.32656 7.20714 1.32656 8.78714 1.92656 9.72714C3.45323 12.1271 5.64656 13.5138 7.9999 13.5138Z"
            stroke="currentColor" stroke-width="1.25" stroke-linecap="round" stroke-linejoin="round"></path>
      </symbol>

      <symbol fill="none" xmlns="http://www.w3.org/2000/svg" viewBox="0 0 20 20" id="profile">
         <path
            d="M10.1331 9.05866C10.0498 9.05033 9.9498 9.05033 9.85814 9.05866C7.8748 8.99199 6.2998 7.36699 6.2998 5.36699C6.2998 3.32533 7.9498 1.66699 9.9998 1.66699C12.0415 1.66699 13.6998 3.32533 13.6998 5.36699C13.6915 7.36699 12.1165 8.99199 10.1331 9.05866Z"
            stroke="#292D32" stroke-width="1.25" stroke-linecap="round" stroke-linejoin="round"></path>
         <path
            d="M5.9666 12.133C3.94993 13.483 3.94993 15.683 5.9666 17.0247C8.25827 18.558 12.0166 18.558 14.3083 17.0247C16.3249 15.6747 16.3249 13.4747 14.3083 12.133C12.0249 10.608 8.2666 10.608 5.9666 12.133Z"
            stroke="currentColor" stroke-width="1.25" stroke-linecap="round" stroke-linejoin="round"></path>
      </symbol>

      <symbol fill="none" xmlns="http://www.w3.org/2000/svg" viewBox="0 0 20 21"
         id="profile-users">
         <path
            d="M7.72883 9.596C7.64883 9.588 7.55283 9.588 7.46483 9.596C5.56083 9.532 4.04883 7.972 4.04883 6.052C4.04883 4.092 5.63283 2.5 7.60083 2.5C9.56083 2.5 11.1528 4.092 11.1528 6.052C11.1448 7.972 9.63283 9.532 7.72883 9.596Z"
            stroke="currentColor" stroke-width="1.2" stroke-linecap="round" stroke-linejoin="round"></path>
         <path
            d="M13.5278 4.10059C15.0798 4.10059 16.3278 5.35659 16.3278 6.90059C16.3278 8.41259 15.1278 9.64459 13.6318 9.70059C13.5678 9.69259 13.4958 9.69259 13.4238 9.70059"
            stroke="currentColor" stroke-width="1.2" stroke-linecap="round" stroke-linejoin="round"></path>
         <path
            d="M3.72837 12.5482C1.79237 13.8442 1.79237 15.9562 3.72837 17.2442C5.92837 18.7162 9.53637 18.7162 11.7364 17.2442C13.6724 15.9482 13.6724 13.8362 11.7364 12.5482C9.54437 11.0842 5.93637 11.0842 3.72837 12.5482Z"
            stroke="currentColor" stroke-width="1.2" stroke-linecap="round" stroke-linejoin="round"></path>
         <path
            d="M15.0723 16.9006C15.6483 16.7806 16.1923 16.5486 16.6403 16.2046C17.8883 15.2686 17.8883 13.7246 16.6403 12.7886C16.2003 12.4526 15.6643 12.2286 15.0963 12.1006"
            stroke="currentColor" stroke-width="1.2" stroke-linecap="round" stroke-linejoin="round"></path>
      </symbol>

      <symbol fill="none" xmlns="http://www.w3.org/2000/svg" viewBox="0 0 16 17"
         id="download">
         <path d="M6 7.83398V11.834L7.33333 10.5007" stroke="#0D4740" stroke-width="1.03125"
            stroke-linecap="round" stroke-linejoin="round"></path>
         <path d="M6.0013 11.8333L4.66797 10.5" stroke="#667085" stroke-width="1.03125"
            stroke-linecap="round" stroke-linejoin="round"></path>
         <path
            d="M14.6654 7.16634V10.4997C14.6654 13.833 13.332 15.1663 9.9987 15.1663H5.9987C2.66536 15.1663 1.33203 13.833 1.33203 10.4997V6.49967C1.33203 3.16634 2.66536 1.83301 5.9987 1.83301H9.33203"
            stroke="currentColor" stroke-width="1.03125" stroke-linecap="round"
            stroke-linejoin="round"></path>
         <path
            d="M14.6654 7.16634H11.9987C9.9987 7.16634 9.33203 6.49967 9.33203 4.49967V1.83301L14.6654 7.16634Z"
            stroke="currentColor" stroke-width="1.03125" stroke-linecap="round"
            stroke-linejoin="round"></path>
      </symbol>

      <symbol fill="none" xmlns="http://www.w3.org/2000/svg" viewBox="0 0 16 17" id="refresh">
         <path
            d="M9.6987 14.9463C12.5587 14.193 14.6654 11.593 14.6654 8.49967C14.6654 4.81967 11.7054 1.83301 7.9987 1.83301C3.55203 1.83301 1.33203 5.53967 1.33203 5.53967M1.33203 5.53967V2.49967M1.33203 5.53967H2.67203H4.29203"
            stroke="currentColor" stroke-width="1.03125" stroke-linecap="round"
            stroke-linejoin="round"></path>
         <path d="M1.33203 8.5C1.33203 12.18 4.3187 15.1667 7.9987 15.1667" stroke="#0D4740"
            stroke-width="1.03125" stroke-linecap="round" stroke-linejoin="round"
            stroke-dasharray="2.06 2.06"></path>
      </symbol>

      <symbol fill="none" xmlns="http://www.w3.org/2000/svg" viewBox="0 0 16 17" id="generate">
         <path
            d="M6.5 3H3.5C3.23478 3 2.98043 3.10536 2.79289 3.29289C2.60536 3.48043 2.5 3.73478 2.5 4V7C2.5 7.26522 2.60536 7.51957 2.79289 7.70711C2.98043 7.89464 3.23478 8 3.5 8H6.5C6.76522 8 7.01957 7.89464 7.20711 7.70711C7.39464 7.51957 7.5 7.26522 7.5 7V4C7.5 3.73478 7.39464 3.48043 7.20711 3.29289C7.01957 3.10536 6.76522 3 6.5 3ZM6.5 7H3.5V4H6.5V7ZM6.5 9H3.5C3.23478 9 2.98043 9.10536 2.79289 9.29289C2.60536 9.48043 2.5 9.73478 2.5 10V13C2.5 13.2652 2.60536 13.5196 2.79289 13.7071C2.98043 13.8946 3.23478 14 3.5 14H6.5C6.76522 14 7.01957 13.8946 7.20711 13.7071C7.39464 13.5196 7.5 13.2652 7.5 13V10C7.5 9.73478 7.39464 9.48043 7.20711 9.29289C7.01957 9.10536 6.76522 9 6.5 9ZM6.5 13H3.5V10H6.5V13ZM12.5 3H9.5C9.23478 3 8.98043 3.10536 8.79289 3.29289C8.60536 3.48043 8.5 3.73478 8.5 4V7C8.5 7.26522 8.60536 7.51957 8.79289 7.70711C8.98043 7.89464 9.23478 8 9.5 8H12.5C12.7652 8 13.0196 7.89464 13.2071 7.70711C13.3946 7.51957 13.5 7.26522 13.5 7V4C13.5 3.73478 13.3946 3.48043 13.2071 3.29289C13.0196 3.10536 12.7652 3 12.5 3ZM12.5 7H9.5V4H12.5V7ZM8.5 11.5V9.5C8.5 9.36739 8.55268 9.24021 8.64645 9.14645C8.74021 9.05268 8.86739 9 9 9C9.13261 9 9.25979 9.05268 9.35355 9.14645C9.44732 9.24021 9.5 9.36739 9.5 9.5V11.5C9.5 11.6326 9.44732 11.7598 9.35355 11.8536C9.25979 11.9473 9.13261 12 9 12C8.86739 12 8.74021 11.9473 8.64645 11.8536C8.55268 11.7598 8.5 11.6326 8.5 11.5ZM13.5 10.5C13.5 10.6326 13.4473 10.7598 13.3536 10.8536C13.2598 10.9473 13.1326 11 13 11H11.5V13.5C11.5 13.6326 11.4473 13.7598 11.3536 13.8536C11.2598 13.9473 11.1326 14 11 14H9C8.86739 14 8.74021 13.9473 8.64645 13.8536C8.55268 13.7598 8.5 13.6326 8.5 13.5C8.5 13.3674 8.55268 13.2402 8.64645 13.1464C8.74021 13.0527 8.86739 13 9 13H10.5V9.5C10.5 9.36739 10.5527 9.24021 10.6464 9.14645C10.7402 9.05268 10.8674 9 11 9C11.1326 9 11.2598 9.05268 11.3536 9.14645C11.4473 9.24021 11.5 9.36739 11.5 9.5V10H13C13.1326 10 13.2598 10.0527 13.3536 10.1464C13.4473 10.2402 13.5 10.3674 13.5 10.5ZM13.5 12.5V13.5C13.5 13.6326 13.4473 13.7598 13.3536 13.8536C13.2598 13.9473 13.1326 14 13 14C12.8674 14 12.7402 13.9473 12.6464 13.8536C12.5527 13.7598 12.5 13.6326 12.5 13.5V12.5C12.5 12.3674 12.5527 12.2402 12.6464 12.1464C12.7402 12.0527 12.8674 12 13 12C13.1326 12 13.2598 12.0527 13.3536 12.1464C13.4473 12.2402 13.5 12.3674 13.5 12.5Z"
            fill="#667085"></path>
      </symbol>

      <symbol xmlns="http://www.w3.org/2000/svg" viewBox="0 0 24 24" id="pdf">
         <path fill="none" stroke="currentColor" stroke-linecap="round" stroke-linejoin="round"
            stroke-width="0.5"
            d="M20 13v-2.343c0-.818 0-1.226-.152-1.594c-.152-.367-.441-.657-1.02-1.235l-4.736-4.736c-.499-.499-.748-.748-1.058-.896a2 2 0 0 0-.197-.082C12.514 2 12.161 2 11.456 2c-3.245 0-4.868 0-5.967.886a4 4 0 0 0-.603.603C4 4.59 4 6.211 4 9.456V13m9-10.5V3c0 2.828 0 4.243.879 5.121C14.757 9 16.172 9 19 9h.5m.25 7h-2.5a1 1 0 0 0-1 1v2m0 0v3m0-3h3m-15 3v-2.5m0 0V16H6a1.75 1.75 0 1 1 0 3.5zm6-3.5h1.5a2 2 0 0 1 2 2v2a2 2 0 0 1-2 2h-1.5z"></path>
      </symbol>

      <symbol xmlns="http://www.w3.org/2000/svg" viewBox="0 0 24 24" id="csv">
         <g fill="none" stroke="currentColor" stroke-linecap="round" stroke-width="0.5">
            <path
               d="M7.5 17.22C7.445 16.03 6.622 16 5.505 16c-1.72 0-2.005.406-2.005 2v2c0 1.594.285 2 2.005 2c1.117 0 1.94-.03 1.995-1.22m13-4.78l-1.777 4.695c-.33.87-.494 1.305-.755 1.305c-.26 0-.426-.435-.755-1.305L15.436 16m-2.56 0h-1.18c-.473 0-.709 0-.895.076c-.634.26-.625.869-.625 1.424s-.009 1.165.625 1.424c.186.076.422.076.894.076s.708 0 .894.076c.634.26.625.869.625 1.424s.009 1.165-.625 1.424c-.186.076-.422.076-.894.076H10.41"></path>
            <path stroke-linejoin="round"
               d="M20 13v-2.343c0-.818 0-1.226-.152-1.594c-.152-.367-.441-.657-1.02-1.235l-4.736-4.736c-.499-.499-.748-.748-1.058-.896a2 2 0 0 0-.197-.082C12.514 2 12.161 2 11.456 2c-3.245 0-4.868 0-5.967.886a4 4 0 0 0-.603.603C4 4.59 4 6.211 4 9.456V13m9-10.5V3c0 2.828 0 4.243.879 5.121C14.757 9 16.172 9 19 9h.5"></path>
         </g>
      </symbol>

      <symbol fill="none" xmlns="http://www.w3.org/2000/svg" viewBox="0 0 24 24" id="flag">
         <path d="M5.1499 2V22" stroke="currentColor" stroke-width="1.5" stroke-miterlimit="10"
            stroke-linecap="round" stroke-linejoin="round"></path>
         <path
            d="M5.1499 4H16.3499C19.0499 4 19.6499 5.5 17.7499 7.4L16.5499 8.6C15.7499 9.4 15.7499 10.7 16.5499 11.4L17.7499 12.6C19.6499 14.5 18.9499 16 16.3499 16H5.1499"
            stroke="currentColor" stroke-width="1.5" stroke-miterlimit="10"
            stroke-linecap="round"
            stroke-linejoin="round"></path>
      </symbol>

      <symbol fill="none" xmlns="http://www.w3.org/2000/svg" viewBox="0 0 24 24" id="check">
         <path d="M4.99951 12.0001L9.99951 17.0001L19.9995 7.00012" stroke="currentColor"
            stroke-width="1.5" stroke-linecap="round" stroke-linejoin="round"></path>
      </symbol>

      <symbol fill="none" xmlns="http://www.w3.org/2000/svg" viewBox="0 0 16 16" id="location">
         <path
            d="M8.0009 8.95395C9.14965 8.95395 10.0809 8.0227 10.0809 6.87395C10.0809 5.72519 9.14965 4.79395 8.0009 4.79395C6.85215 4.79395 5.9209 5.72519 5.9209 6.87395C5.9209 8.0227 6.85215 8.95395 8.0009 8.95395Z"
            stroke="currentColor" stroke-width="1.04648"></path>
         <path
            d="M2.41281 5.65968C3.72615 -0.113657 12.2795 -0.106991 13.5861 5.66634C14.3528 9.05301 12.2461 11.9197 10.3995 13.693C9.05948 14.9863 6.93948 14.9863 5.59281 13.693C3.75281 11.9197 1.64615 9.04634 2.41281 5.65968Z"
            stroke="currentColor" stroke-width="1.04648"></path>
      </symbol>

      <symbol fill="none" xmlns="http://www.w3.org/2000/svg" viewBox="0 0 17 16" id="ellipse">
         <path
            d="M8.03711 2C11.3798 2.00009 14.0742 4.69502 14.0742 8C14.0742 11.305 11.3798 13.9999 8.03711 14C4.6943 14 2 11.305 2 8C2 4.69497 4.6943 2 8.03711 2Z"
            fill="white" stroke="currentColor" stroke-width="4"></path>
      </symbol>

      <symbol fill="none" xmlns="http://www.w3.org/2000/svg" viewBox="0 0 20 20" id="warning">
         <path d="M10 6.45801V10.833" stroke="#FFFBFA" stroke-width="1.5" stroke-linecap="round"
            stroke-linejoin="round"></path>
         <path
            d="M17.5665 7.15035V12.8503C17.5665 13.7837 17.0665 14.6504 16.2582 15.1254L11.3082 17.9837C10.4998 18.4504 9.49981 18.4504 8.68315 17.9837L3.73314 15.1254C2.92481 14.6587 2.4248 13.792 2.4248 12.8503V7.15035C2.4248 6.21702 2.92481 5.35032 3.73314 4.87532L8.68315 2.01699C9.49148 1.55033 10.4915 1.55033 11.3082 2.01699L16.2582 4.87532C17.0665 5.35032 17.5665 6.20869 17.5665 7.15035Z"
            stroke="currentColor" stroke-width="1.5" stroke-linecap="round" stroke-linejoin="round"></path>
         <path d="M10 13.5V13.5833" stroke="currentColor" stroke-width="2" stroke-linecap="round"
            stroke-linejoin="round"></path>
      </symbol>

      <symbol fill="none" xmlns="http://www.w3.org/2000/svg" viewBox="0 0 16 17" id="pdf">
         <path
            d="M14 10C14 10.1326 13.9473 10.2598 13.8536 10.3536C13.7598 10.4473 13.6326 10.5 13.5 10.5H12V11.5H13C13.1326 11.5 13.2598 11.5527 13.3536 11.6464C13.4473 11.7402 13.5 11.8674 13.5 12C13.5 12.1326 13.4473 12.2598 13.3536 12.3536C13.2598 12.4473 13.1326 12.5 13 12.5H12V13.5C12 13.6326 11.9473 13.7598 11.8536 13.8536C11.7598 13.9473 11.6326 14 11.5 14C11.3674 14 11.2402 13.9473 11.1464 13.8536C11.0527 13.7598 11 13.6326 11 13.5V10C11 9.86739 11.0527 9.74021 11.1464 9.64645C11.2402 9.55268 11.3674 9.5 11.5 9.5H13.5C13.6326 9.5 13.7598 9.55268 13.8536 9.64645C13.9473 9.74021 14 9.86739 14 10ZM5.75 11.25C5.75 11.7141 5.56563 12.1592 5.23744 12.4874C4.90925 12.8156 4.46413 13 4 13H3.5V13.5C3.5 13.6326 3.44732 13.7598 3.35355 13.8536C3.25979 13.9473 3.13261 14 3 14C2.86739 14 2.74021 13.9473 2.64645 13.8536C2.55268 13.7598 2.5 13.6326 2.5 13.5V10C2.5 9.86739 2.55268 9.74021 2.64645 9.64645C2.74021 9.55268 2.86739 9.5 3 9.5H4C4.46413 9.5 4.90925 9.68437 5.23744 10.0126C5.56563 10.3408 5.75 10.7859 5.75 11.25ZM4.75 11.25C4.75 11.0511 4.67098 10.8603 4.53033 10.7197C4.38968 10.579 4.19891 10.5 4 10.5H3.5V12H4C4.19891 12 4.38968 11.921 4.53033 11.7803C4.67098 11.6397 4.75 11.4489 4.75 11.25ZM10.25 11.75C10.25 12.3467 10.0129 12.919 9.59099 13.341C9.16903 13.7629 8.59674 14 8 14H7C6.86739 14 6.74021 13.9473 6.64645 13.8536C6.55268 13.7598 6.5 13.6326 6.5 13.5V10C6.5 9.86739 6.55268 9.74021 6.64645 9.64645C6.74021 9.55268 6.86739 9.5 7 9.5H8C8.59674 9.5 9.16903 9.73705 9.59099 10.159C10.0129 10.581 10.25 11.1533 10.25 11.75ZM9.25 11.75C9.25 11.4185 9.1183 11.1005 8.88388 10.8661C8.64946 10.6317 8.33152 10.5 8 10.5H7.5V13H8C8.33152 13 8.64946 12.8683 8.88388 12.6339C9.1183 12.3995 9.25 12.0815 9.25 11.75ZM2.5 7.5V3C2.5 2.73478 2.60536 2.48043 2.79289 2.29289C2.98043 2.10536 3.23478 2 3.5 2H9.5C9.56568 1.99995 9.63073 2.01284 9.69143 2.03793C9.75212 2.06303 9.80728 2.09983 9.85375 2.14625L13.3538 5.64625C13.4002 5.69272 13.437 5.74788 13.4621 5.80858C13.4872 5.86927 13.5001 5.93432 13.5 6V7.5C13.5 7.63261 13.4473 7.75979 13.3536 7.85355C13.2598 7.94732 13.1326 8 13 8C12.8674 8 12.7402 7.94732 12.6464 7.85355C12.5527 7.75979 12.5 7.63261 12.5 7.5V6.5H9.5C9.36739 6.5 9.24021 6.44732 9.14645 6.35355C9.05268 6.25979 9 6.13261 9 6V3H3.5V7.5C3.5 7.63261 3.44732 7.75979 3.35355 7.85355C3.25979 7.94732 3.13261 8 3 8C2.86739 8 2.74021 7.94732 2.64645 7.85355C2.55268 7.75979 2.5 7.63261 2.5 7.5ZM10 5.5H11.7931L10 3.70688V5.5Z"
            fill="none"></path>
      </symbol>


      <symbol fill="none" xmlns="http://www.w3.org/2000/svg" viewBox="0 0 12 12" id="csv">
         <path
            d="M1.5 9.75C1.5 10.4375 1.94875 11 2.5 11C2.62065 10.9973 2.7395 10.9701 2.8493 10.92C2.95911 10.8699 3.05759 10.7981 3.13875 10.7087C3.23087 10.6149 3.35624 10.5612 3.48771 10.5591C3.61919 10.5571 3.74618 10.6069 3.84118 10.6978C3.93619 10.7887 3.99157 10.9133 3.99533 11.0448C3.99908 11.1762 3.95091 11.3038 3.86125 11.4C3.68715 11.5874 3.47661 11.7373 3.24254 11.8405C3.00847 11.9436 2.75579 11.9979 2.5 12C1.39688 12 0.5 10.9906 0.5 9.75C0.5 8.50937 1.39688 7.5 2.5 7.5C2.75579 7.50207 3.00847 7.55636 3.24254 7.65953C3.47661 7.7627 3.68715 7.91259 3.86125 8.1C3.95091 8.19618 3.99908 8.3238 3.99533 8.45523C3.99157 8.58667 3.93619 8.71134 3.84118 8.80223C3.74618 8.89313 3.61919 8.94295 3.48771 8.94089C3.35624 8.93884 3.23087 8.88508 3.13875 8.79125C3.05759 8.70193 2.95911 8.63005 2.8493 8.57999C2.7395 8.52992 2.62065 8.5027 2.5 8.5C1.94875 8.5 1.5 9.0625 1.5 9.75ZM6.475 9.20687C6.225 9.13437 5.96625 9.06 5.82188 8.96688C5.74375 8.91625 5.745 8.90438 5.75187 8.84813C5.75297 8.80271 5.76488 8.7582 5.78662 8.71831C5.80836 8.67842 5.8393 8.64429 5.87687 8.61875C6.16437 8.42375 6.83563 8.51062 7.11563 8.58375C7.24392 8.61814 7.38063 8.60017 7.49567 8.53377C7.61071 8.46737 7.69467 8.35799 7.72906 8.22969C7.76346 8.10139 7.74548 7.96468 7.67908 7.84964C7.61268 7.7346 7.5033 7.65065 7.375 7.61625C7.2425 7.58187 6.0625 7.29 5.3225 7.78875C5.16601 7.89377 5.03452 8.03191 4.93732 8.19337C4.84011 8.35483 4.77958 8.53568 4.76 8.72313C4.635 9.71563 5.61313 9.99875 6.1975 10.1675C6.95125 10.3856 7.0175 10.475 6.99625 10.6419C6.97688 10.7925 6.9175 10.8506 6.8625 10.8875C6.575 11.0787 5.91437 10.985 5.64062 10.91C5.51266 10.8743 5.37574 10.8909 5.26 10.9561C5.14425 11.0213 5.05916 11.1298 5.02344 11.2578C4.98772 11.3858 5.00429 11.5227 5.06952 11.6384C5.13475 11.7542 5.24328 11.8393 5.37125 11.875C5.68124 11.9562 6.00019 11.9982 6.32062 12C6.68437 12 7.08937 11.9375 7.41375 11.7212C7.57385 11.6149 7.7084 11.4743 7.80771 11.3097C7.90702 11.1452 7.96864 10.9606 7.98812 10.7694C8.125 9.6875 7.09312 9.38562 6.475 9.20687ZM11.6681 7.52938C11.6063 7.50723 11.5407 7.4975 11.4751 7.50072C11.4095 7.50394 11.3451 7.52006 11.2858 7.54815C11.2264 7.57624 11.1731 7.61576 11.129 7.66444C11.0849 7.71312 11.0509 7.77002 11.0288 7.83187L10.25 10.0131L9.47062 7.83187C9.42603 7.70697 9.33366 7.6049 9.21381 7.54811C9.09396 7.49133 8.95646 7.48447 8.83156 7.52906C8.70666 7.57365 8.60459 7.66603 8.5478 7.78588C8.49101 7.90573 8.48416 8.04322 8.52875 8.16813L9.77875 11.6681C9.81341 11.7653 9.87727 11.8494 9.96158 11.9088C10.0459 11.9682 10.1465 12.0001 10.2497 12.0001C10.3528 12.0001 10.4535 11.9682 10.5378 11.9088C10.6221 11.8494 10.686 11.7653 10.7206 11.6681L11.9706 8.16813C12.0151 8.0433 12.0083 7.90592 11.9516 7.78614C11.8949 7.66637 11.7929 7.57402 11.6681 7.52938ZM12 4V5.5C12 5.63261 11.9473 5.75979 11.8536 5.85355C11.7598 5.94732 11.6326 6 11.5 6C11.3674 6 11.2402 5.94732 11.1464 5.85355C11.0527 5.75979 11 5.63261 11 5.5V4.5H8C7.86739 4.5 7.74021 4.44732 7.64645 4.35355C7.55268 4.25979 7.5 4.13261 7.5 4V1H2V5.5C2 5.63261 1.94732 5.75979 1.85355 5.85355C1.75979 5.94732 1.63261 6 1.5 6C1.36739 6 1.24021 5.94732 1.14645 5.85355C1.05268 5.75979 1 5.63261 1 5.5V1C1 0.734784 1.10536 0.48043 1.29289 0.292893C1.48043 0.105357 1.73478 1.54599e-07 2 1.54599e-07H8C8.06568 -5.14929e-05 8.13073 0.0128379 8.19143 0.037932C8.25212 0.063026 8.30728 0.099833 8.35375 0.14625L11.8538 3.64625C11.9002 3.69272 11.937 3.74788 11.9621 3.80858C11.9872 3.86927 12.0001 3.93432 12 4ZM10.2931 3.5L8.5 1.70688V3.5H10.2931Z"
            fill="none"></path>
      </symbol>

      <symbol fill="none" xmlns="http://www.w3.org/2000/svg" viewBox="0 0 12 14" id="seats">
         <path
            d="M12 13.5001C12 13.6327 11.9473 13.7599 11.8535 13.8537C11.7598 13.9475 11.6326 14.0001 11.5 14.0001H4.99998C4.86737 14.0001 4.7402 13.9475 4.64643 13.8537C4.55266 13.7599 4.49998 13.6327 4.49998 13.5001C4.49998 13.3675 4.55266 13.2403 4.64643 13.1466C4.7402 13.0528 4.86737 13.0001 4.99998 13.0001H11.5C11.6326 13.0001 11.7598 13.0528 11.8535 13.1466C11.9473 13.2403 12 13.3675 12 13.5001ZM12 9.00013V11.0001C12 11.2653 11.8946 11.5197 11.7071 11.7072C11.5196 11.8948 11.2652 12.0001 11 12.0001H5.13186C4.94591 12.0007 4.76351 11.9492 4.60533 11.8514C4.44714 11.7537 4.3195 11.6136 4.23686 11.447L0.604983 4.19701C0.535932 4.05794 0.5 3.90477 0.5 3.74951C0.5 3.59424 0.535932 3.44108 0.604983 3.30201L1.98748 0.552006C2.10483 0.317829 2.30937 0.13904 2.55714 0.0540742C2.80491 -0.030892 3.07612 -0.0152523 3.31248 0.0976312L5.41811 0.986381L5.44748 1.00013C5.68454 1.1188 5.86477 1.32674 5.94857 1.57825C6.03237 1.82976 6.01287 2.10425 5.89436 2.34138C5.89244 2.34614 5.89014 2.35074 5.88748 2.35513L4.99998 4.00013L6.98623 8.00013H11C11.2652 8.00013 11.5196 8.10549 11.7071 8.29303C11.8946 8.48056 12 8.73491 12 9.00013ZM11 9.00013H6.98561C6.79973 9.00074 6.61741 8.94924 6.45932 8.85147C6.30123 8.7537 6.17371 8.61358 6.09123 8.44701L4.10436 4.44701C4.03547 4.30822 3.99962 4.15538 3.99962 4.00044C3.99962 3.8455 4.03547 3.69266 4.10436 3.55388L4.11186 3.54013L4.99998 1.89513L2.91061 1.01326C2.90059 1.00941 2.89078 1.00502 2.88123 1.00013L1.49998 3.75013L5.13123 11.0001H11V9.00013Z"
            fill="none"></path>
      </symbol>

      <symbol xmlns="http://www.w3.org/2000/svg" viewBox="0 0 24 24" id="empty-file">
         <g fill="none" stroke="currentColor" stroke-linecap="round" stroke-linejoin="round"
            stroke-width="1">
            <path d="M14 3v4a1 1 0 0 0 1 1h4"></path>
            <path
               d="M17 21H7a2 2 0 0 1-2-2V5a2 2 0 0 1 2-2h7l5 5v11a2 2 0 0 1-2 2m-7-9l4 4m0-4l-4 4"></path>
         </g>
      </symbol>

      <symbol xmlns="http://www.w3.org/2000/svg" viewBox="0 0 24 24" id="sign-out">
         <path fill="none" stroke="currentColor" stroke-linecap="round" stroke-linejoin="round"
            stroke-miterlimit="10" stroke-width="0.5"
            d="m18 15l3-3m0 0l-3-3m3 3H7m7 4v2.6a2.4 2.4 0 0 1-2.4 2.4H5.4A2.4 2.4 0 0 1 3 18.6V5.4A2.4 2.4 0 0 1 5.4 3h6.2A2.4 2.4 0 0 1 14 5.4V8"></path>
      </symbol>

      <symbol fill="none" xmlns="http://www.w3.org/2000/svg" viewBox="0 0 16 17"
         id="message-text">
         <path
            d="M5.66634 13.1667H5.33301C2.66634 13.1667 1.33301 12.5 1.33301 9.16671V5.83337C1.33301 3.16671 2.66634 1.83337 5.33301 1.83337H10.6663C13.333 1.83337 14.6663 3.16671 14.6663 5.83337V9.16671C14.6663 11.8334 13.333 13.1667 10.6663 13.1667H10.333C10.1263 13.1667 9.92634 13.2667 9.79967 13.4334L8.79967 14.7667C8.35967 15.3534 7.63967 15.3534 7.19967 14.7667L6.19967 13.4334C6.09301 13.2867 5.84634 13.1667 5.66634 13.1667Z"
            stroke="currentColor" stroke-width="1.25" stroke-miterlimit="10" stroke-linecap="round"
            stroke-linejoin="round"></path>
         <path d="M4.66699 5.83337H11.3337" stroke="currentColor" stroke-width="1.25"
            stroke-linecap="round" stroke-linejoin="round"></path>
         <path d="M4.66699 9.16663H8.66699" stroke="currentColor" stroke-width="1.25"
            stroke-linecap="round" stroke-linejoin="round"></path>
      </symbol>

      <symbol fill="none" xmlns="http://www.w3.org/2000/svg" viewBox="0 0 16 17" id="user-minus">
         <path
            d="M8.00033 8.50004C9.84127 8.50004 11.3337 7.00766 11.3337 5.16671C11.3337 3.32576 9.84127 1.83337 8.00033 1.83337C6.15938 1.83337 4.66699 3.32576 4.66699 5.16671C4.66699 7.00766 6.15938 8.50004 8.00033 8.50004Z"
            stroke="currentColor" stroke-width="1.25" stroke-linecap="round" stroke-linejoin="round"></path>
         <path
            d="M2.27344 15.1667C2.27344 12.5867 4.84012 10.5 8.00012 10.5C8.64012 10.5 9.26013 10.5867 9.84013 10.7467"
            stroke="currentColor" stroke-width="1.25" stroke-linecap="round" stroke-linejoin="round"></path>
         <path
            d="M14.6663 12.5C14.6663 12.7134 14.6397 12.92 14.5863 13.12C14.5263 13.3867 14.4197 13.6467 14.2797 13.8734C13.8197 14.6467 12.973 15.1667 11.9997 15.1667C11.313 15.1667 10.693 14.9067 10.2264 14.48C10.0264 14.3067 9.85302 14.1 9.71969 13.8734C9.47302 13.4734 9.33301 13 9.33301 12.5C9.33301 11.78 9.61968 11.1201 10.0863 10.6401C10.573 10.1401 11.253 9.83337 11.9997 9.83337C12.7863 9.83337 13.4997 10.1734 13.9797 10.7201C14.4063 11.1934 14.6663 11.82 14.6663 12.5Z"
            stroke="currentColor" stroke-width="1.25" stroke-miterlimit="10" stroke-linecap="round"
            stroke-linejoin="round"></path>
         <path d="M12.9935 12.4867H11.0068" stroke="currentColor" stroke-width="1.25"
            stroke-miterlimit="10" stroke-linecap="round" stroke-linejoin="round"></path>
      </symbol>

      <symbol fill="none" xmlns="http://www.w3.org/2000/svg" viewBox="0 0 16 16"
         id="emergency">
         <path
            d="M6.99343 1.48667L3.66677 2.73333C2.9001 3.02 2.27344 3.92665 2.27344 4.74665V9.69998C2.27344 10.4866 2.79344 11.52 3.42678 11.9933L6.29344 14.1333C7.23344 14.84 8.78009 14.84 9.72009 14.1333L12.5868 11.9933C13.2201 11.52 13.7401 10.4866 13.7401 9.69998V4.74665C13.7401 3.92665 13.1134 3.02 12.3468 2.73333L9.0201 1.48667C8.45343 1.28 7.54676 1.28 6.99343 1.48667Z"
            stroke="currentColor" stroke-linecap="round" stroke-linejoin="round"></path>
         <path
            d="M7.99947 7.28003C7.9728 7.28003 7.93947 7.28003 7.9128 7.28003C7.28613 7.26003 6.78613 6.74002 6.78613 6.10669C6.78613 5.46002 7.31281 4.93335 7.95947 4.93335C8.60614 4.93335 9.13281 5.46002 9.13281 6.10669C9.12615 6.74669 8.62614 7.26003 7.99947 7.28003Z"
            stroke="currentColor" stroke-linecap="round" stroke-linejoin="round"></path>
         <path
            d="M6.67336 9.14674C6.03336 9.5734 6.03336 10.2734 6.67336 10.7001C7.40003 11.1867 8.59336 11.1867 9.32003 10.7001C9.96003 10.2734 9.96003 9.5734 9.32003 9.14674C8.60003 8.66007 7.40669 8.66007 6.67336 9.14674Z"
            stroke="currentColor" stroke-linecap="round" stroke-linejoin="round"></path>
      </symbol>
   </def>
</svg>