<svg>
   <def>
      <symbol xmlns="http://www.w3.org/2000/svg" viewBox="0 0 24 24" id="moon">
         <path fill="currentColor"
            d="M12 1.992a10 10 0 1 0 9.236 13.838c.341-.82-.476-1.644-1.298-1.31a6.5 6.5 0 0 1-6.864-10.787l.077-.08c.551-.63.113-1.653-.758-1.653h-.266l-.068-.006z"></path>
      </symbol>

      <symbol fill="none" xmlns="http://www.w3.org/2000/svg" viewBox="0 0 24 24" id="right-arrow">
         <path
            d="M4.45508 9.96004L7.71508 6.70004C8.10008 6.31504 8.10008 5.68504 7.71508 5.30004L4.45508 2.04004"
            stroke="currentColor" stroke-miterlimit="10" stroke-linecap="round"
            stroke-linejoin="round"></path>
      </symbol>

      <symbol xmlns="http://www.w3.org/2000/svg" viewBox="0 0 24 24" id="church">
         <g fill="none" stroke="currentColor" stroke-linecap="round" stroke-linejoin="round"
            stroke-width="1.5">
            <path
               d="M12 2v4m2-2h-4M8.501 8.799L12 6l3.499 2.799C16.717 9.774 17 10.362 17 11.923V22H7V11.923c0-1.56.283-2.15 1.501-3.124M17 12l1.789.894c1.076.538 1.614.807 1.912 1.29c.299.484.299 1.085.299 2.288V20c0 .943 0 1.414-.293 1.707S19.943 22 19 22h-2M7 12l-1.789.894c-1.076.538-1.614.807-1.912 1.29C3 14.669 3 15.27 3 16.473V20c0 .943 0 1.414.293 1.707S4.057 22 5 22h2"></path>
            <path d="M10 22v-4a2 2 0 1 1 4 0v4m-1.992-11h-.009"></path>
         </g>
      </symbol>

      <symbol fill="none" xmlns="http://www.w3.org/2000/svg" viewBox="0 0 16 17" id="car">
         <path
            d="M10.3403 2.38672H5.66033C4.00033 2.38672 3.63366 3.21339 3.42033 4.22672L2.66699 7.83339H13.3337L12.5803 4.22672C12.367 3.21339 12.0003 2.38672 10.3403 2.38672Z"
            stroke="currentColor" stroke-linecap="round" stroke-linejoin="round"></path>
         <path
            d="M14.6598 13.713C14.7332 14.493 14.1065 15.1663 13.3065 15.1663H12.0532C11.3332 15.1663 11.2332 14.8597 11.1065 14.4797L10.9732 14.0797C10.7865 13.533 10.6665 13.1663 9.70649 13.1663H6.29316C5.33316 13.1663 5.19316 13.5797 5.02649 14.0797L4.89316 14.4797C4.76649 14.8597 4.66649 15.1663 3.94649 15.1663H2.69316C1.89316 15.1663 1.26649 14.493 1.33982 13.713L1.71316 9.65301C1.80649 8.65301 1.99982 7.83301 3.74649 7.83301H12.2532C13.9998 7.83301 14.1932 8.65301 14.2865 9.65301L14.6598 13.713Z"
            stroke="currentColor" stroke-linecap="round" stroke-linejoin="round"></path>
         <path d="M2.66667 5.83301H2" stroke="currentColor" stroke-linecap="round"
            stroke-linejoin="round"></path>
         <path d="M13.9997 5.83301H13.333" stroke="currentColor" stroke-linecap="round"
            stroke-linejoin="round"></path>
         <path d="M8 2.5V3.83333" stroke="currentColor" stroke-linecap="round"
            stroke-linejoin="round"></path>
         <path d="M7 3.83301H9" stroke="currentColor" stroke-linecap="round" stroke-linejoin="round"></path>
         <path d="M4 10.5H6" stroke="currentColor" stroke-linecap="round" stroke-linejoin="round"></path>
         <path d="M10 10.5H12" stroke="currentColor" stroke-linecap="round" stroke-linejoin="round"></path>
      </symbol>

      <symbol fill="none" xmlns="http://www.w3.org/2000/svg" viewBox="0 0 16 17" id="user-tick">
         <path
            d="M8.00033 8.49967C9.84127 8.49967 11.3337 7.00729 11.3337 5.16634C11.3337 3.32539 9.84127 1.83301 8.00033 1.83301C6.15938 1.83301 4.66699 3.32539 4.66699 5.16634C4.66699 7.00729 6.15938 8.49967 8.00033 8.49967Z"
            stroke="currentColor" stroke-width="1.2" stroke-linecap="round" stroke-linejoin="round"></path>
         <path
            d="M2.27344 15.1667C2.27344 12.5867 4.8401 10.5 8.0001 10.5C8.6401 10.5 9.26011 10.5867 9.84011 10.7467"
            stroke="currentColor" stroke-width="1.2" stroke-linecap="round" stroke-linejoin="round"></path>
         <path
            d="M14.6663 12.4997C14.6663 12.9997 14.5264 13.473 14.2797 13.873C14.1397 14.113 13.9597 14.3263 13.753 14.4997C13.2863 14.9197 12.673 15.1663 11.9997 15.1663C11.0263 15.1663 10.1797 14.6463 9.71967 13.873C9.473 13.473 9.33301 12.9997 9.33301 12.4997C9.33301 11.6597 9.71967 10.9063 10.333 10.4197C10.793 10.053 11.373 9.83301 11.9997 9.83301C13.473 9.83301 14.6663 11.0263 14.6663 12.4997Z"
            stroke="currentColor" stroke-width="1.2" stroke-miterlimit="10"
            stroke-linecap="round"
            stroke-linejoin="round"></path>
         <path d="M10.96 12.5L11.62 13.16L13.04 11.8467" stroke="currentColor" stroke-width="1.2"
            stroke-linecap="round" stroke-linejoin="round"></path>
      </symbol>

      <symbol xmlns="http://www.w3.org/2000/svg" viewBox="0 0 24 24" id="routing">
         <path fill="currentColor" fill-rule="evenodd"
            d="M18.5 14c-1.933 0-3.5 1.458-3.5 3.257c0 1.785 1.117 3.868 2.86 4.613c.406.173.874.173 1.28 0c1.743-.745 2.86-2.828 2.86-4.613C22 15.458 20.433 14 18.5 14m0 4.5a1 1 0 1 0 0-2a1 1 0 0 0 0 2M5.5 2C3.567 2 2 3.458 2 5.257C2 7.042 3.117 9.125 4.86 9.87c.406.173.874.173 1.28 0C7.883 9.125 9 7.042 9 5.257C9 3.458 7.433 2 5.5 2m0 4.5a1 1 0 1 0 0-2a1 1 0 0 0 0 2M11.25 5a.75.75 0 0 1 .75-.75h4.132c2.751 0 3.797 3.593 1.476 5.07l-10.41 6.625c-1.056.672-.58 2.305.67 2.305h2.321l-.22-.22a.75.75 0 1 1 1.061-1.06l1.5 1.5a.75.75 0 0 1 0 1.06l-1.5 1.5a.75.75 0 1 1-1.06-1.06l.22-.22H7.867c-2.751 0-3.797-3.593-1.476-5.07l10.411-6.625c1.055-.672.58-2.305-.671-2.305H12a.75.75 0 0 1-.75-.75"
            clip-rule="evenodd"></path>
      </symbol>

      <symbol xmlns="http://www.w3.org/2000/svg" viewBox="0 0 24 24" id="bus">
         <path fill="currentColor"
            d="M8.5 17a1 1 0 0 0 1-1a1.4 1.4 0 0 0 0-.2a.6.6 0 0 0-.06-.18a.8.8 0 0 0-.09-.18l-.12-.15a1 1 0 0 0-.33-.21a1 1 0 0 0-.6-.08l-.18.06l-.18.09a2 2 0 0 0-.15.12l-.12.15a.8.8 0 0 0-.09.18a.6.6 0 0 0-.06.18a1.4 1.4 0 0 0 0 .2a1 1 0 0 0 1 1Zm8 0a1 1 0 0 0 1-1a1.4 1.4 0 0 0 0-.2a.6.6 0 0 0-.06-.18a.8.8 0 0 0-.09-.18l-.12-.15a1.2 1.2 0 0 0-.33-.21a1 1 0 0 0-.76 0a1.2 1.2 0 0 0-.33.21l-.12.15a.8.8 0 0 0-.09.18a.6.6 0 0 0-.06.18a1.4 1.4 0 0 0 0 .2a1 1 0 0 0 .29.7a1 1 0 0 0 .67.3m-3-12h-2a1 1 0 0 0 0 2h2a1 1 0 0 0 0-2m5-3h-12a3 3 0 0 0-3 3v12a3 3 0 0 0 2 2.82V21a1 1 0 0 0 2 0v-1h10v1a1 1 0 0 0 2 0v-1.18a3 3 0 0 0 2-2.82V5a3 3 0 0 0-3-3m1 15a1 1 0 0 1-1 1h-12a1 1 0 0 1-1-1v-3h14Zm0-5h-14V5a1 1 0 0 1 1-1h12a1 1 0 0 1 1 1Z"></path>
      </symbol>

      <symbol xmlns="http://www.w3.org/2000/svg" viewBox="0 0 24 24" id="calendar">
         <path fill="currentColor"
            d="M17 14a1 1 0 1 0 0-2a1 1 0 0 0 0 2m0 4a1 1 0 1 0 0-2a1 1 0 0 0 0 2m-4-5a1 1 0 1 1-2 0a1 1 0 0 1 2 0m0 4a1 1 0 1 1-2 0a1 1 0 0 1 2 0m-6-3a1 1 0 1 0 0-2a1 1 0 0 0 0 2m0 4a1 1 0 1 0 0-2a1 1 0 0 0 0 2"></path>
         <path fill="currentColor" fill-rule="evenodd"
            d="M7 1.75a.75.75 0 0 1 .75.75v.763c.662-.013 1.391-.013 2.193-.013h4.113c.803 0 1.532 0 2.194.013V2.5a.75.75 0 0 1 1.5 0v.827q.39.03.739.076c1.172.158 2.121.49 2.87 1.238c.748.749 1.08 1.698 1.238 2.87c.153 1.14.153 2.595.153 4.433v2.112c0 1.838 0 3.294-.153 4.433c-.158 1.172-.49 2.121-1.238 2.87c-.749.748-1.698 1.08-2.87 1.238c-1.14.153-2.595.153-4.433.153H9.945c-1.838 0-3.294 0-4.433-.153c-1.172-.158-2.121-.49-2.87-1.238c-.748-.749-1.08-1.698-1.238-2.87c-.153-1.14-.153-2.595-.153-4.433v-2.112c0-1.838 0-3.294.153-4.433c.158-1.172.49-2.121 1.238-2.87c.749-.748 1.698-1.08 2.87-1.238q.35-.046.739-.076V2.5A.75.75 0 0 1 7 1.75M5.71 4.89c-1.005.135-1.585.389-2.008.812S3.025 6.705 2.89 7.71q-.034.255-.058.539h18.336q-.024-.284-.058-.54c-.135-1.005-.389-1.585-.812-2.008s-1.003-.677-2.009-.812c-1.027-.138-2.382-.14-4.289-.14h-4c-1.907 0-3.261.002-4.29.14M2.75 12c0-.854 0-1.597.013-2.25h18.474c.013.653.013 1.396.013 2.25v2c0 1.907-.002 3.262-.14 4.29c-.135 1.005-.389 1.585-.812 2.008s-1.003.677-2.009.812c-1.027.138-2.382.14-4.289.14h-4c-1.907 0-3.261-.002-4.29-.14c-1.005-.135-1.585-.389-2.008-.812s-.677-1.003-.812-2.009c-.138-1.027-.14-2.382-.14-4.289z"
            clip-rule="evenodd"></path>
      </symbol>

      <symbol xmlns="http://www.w3.org/2000/svg" viewBox="0 0 24 24" id="speaker">
         <g fill="none" stroke="currentColor" stroke-width="2">
            <path
               d="M4 10c0-3.771 0-5.657 1.172-6.828S8.229 2 12 2s5.657 0 6.828 1.172S20 6.229 20 10v4c0 3.771 0 5.657-1.172 6.828S15.771 22 12 22s-5.657 0-6.828-1.172S4 17.771 4 14z"></path>
            <path d="M14 7.5a2 2 0 1 1-4 0a2 2 0 0 1 4 0Zm1 8a3 3 0 1 1-6 0a3 3 0 0 1 6 0Z"></path>
         </g>
      </symbol>


      <symbol xmlns="http://www.w3.org/2000/svg" viewBox="0 0 24 24" id="bell">
         <path fill="currentColor"
            d="M12 4.5a.5.5 0 0 0-.5-.5a.5.5 0 0 0-.5.5v1.53c-2.25.25-4 2.15-4 4.47v5.91L5.41 18h12.18L16 16.41V10.5c0-2.32-1.75-4.22-4-4.47zM11.5 3A1.5 1.5 0 0 1 13 4.5v.71c2.31.65 4 2.79 4 5.29V16l3 3H3l3-3v-5.5C6 8 7.69 5.86 10 5.21V4.5A1.5 1.5 0 0 1 11.5 3m0 19a2.5 2.5 0 0 1-2.45-2h1.04a1.495 1.495 0 0 0 2.82 0h1.04a2.5 2.5 0 0 1-2.45 2"></path>
      </symbol>

      <symbol xmlns="http://www.w3.org/2000/svg" viewBox="0 0 24 24" id="close">
         <path fill="currentColor"
            d="M19 6.41L17.59 5L12 10.59L6.41 5L5 6.41L10.59 12L5 17.59L6.41 19L12 13.41L17.59 19L19 17.59L13.41 12z"></path>
      </symbol>

      <symbol xmlns="http://www.w3.org/2000/svg" viewBox="0 0 24 24" id="menu">
         <path fill="none" stroke="currentColor" stroke-linecap="round" stroke-linejoin="round"
            stroke-width="1" d="M7 6h10M4 12h16M7 12h13M7 18h10"></path>
      </symbol>

      <symbol fill="none" xmlns="http://www.w3.org/2000/svg" viewBox="0 0 20 20"
         id="search">
         <path
            d="M9.16699 16.6667C13.3091 16.6667 16.667 13.3089 16.667 9.16675C16.667 5.02461 13.3091 1.66675 9.16699 1.66675C5.02486 1.66675 1.66699 5.02461 1.66699 9.16675C1.66699 13.3089 5.02486 16.6667 9.16699 16.6667Z"
            stroke="currentColor" stroke-width="1.25" stroke-linecap="round" stroke-linejoin="round"></path>
         <path
            d="M15.774 17.2406C16.2157 18.5739 17.224 18.7073 17.999 17.5406C18.7074 16.4739 18.2407 15.5989 16.9574 15.5989C16.0074 15.5906 15.474 16.3323 15.774 17.2406Z"
            stroke="currentColor" stroke-width="1.25" stroke-linecap="round" stroke-linejoin="round"></path>
      </symbol>

      <symbol fill="none" xmlns="http://www.w3.org/2000/svg" viewBox="0 0 16 16" id="arrow-down">
         <path
            d="M13.2797 5.96655L8.93306 10.3132C8.41973 10.8266 7.57973 10.8266 7.06639 10.3132L2.71973 5.96655"
            stroke="currentColor" stroke-width="1.03125" stroke-miterlimit="10"
            stroke-linecap="round"
            stroke-linejoin="round"></path>
      </symbol>

      <symbol fill="none" xmlns="http://www.w3.org/2000/svg" viewBox="0 0 16 16" id="dotted-menu">
         <path
            d="M3.33333 6.6665C2.6 6.6665 2 7.2665 2 7.99984C2 8.73317 2.6 9.33317 3.33333 9.33317C4.06667 9.33317 4.66667 8.73317 4.66667 7.99984C4.66667 7.2665 4.06667 6.6665 3.33333 6.6665Z"
            stroke="currentColor"></path>
         <path
            d="M12.6663 6.6665C11.933 6.6665 11.333 7.2665 11.333 7.99984C11.333 8.73317 11.933 9.33317 12.6663 9.33317C13.3997 9.33317 13.9997 8.73317 13.9997 7.99984C13.9997 7.2665 13.3997 6.6665 12.6663 6.6665Z"
            stroke="currentColor"></path>
         <path
            d="M8.00033 6.6665C7.26699 6.6665 6.66699 7.2665 6.66699 7.99984C6.66699 8.73317 7.26699 9.33317 8.00033 9.33317C8.73366 9.33317 9.33366 8.73317 9.33366 7.99984C9.33366 7.2665 8.73366 6.6665 8.00033 6.6665Z"
            stroke="currentColor"></path>
      </symbol>

      <symbol fill="none" xmlns="http://www.w3.org/2000/svg" viewBox="0 0 20 21"
         id="document-text">
         <path
            d="M18.3337 8.83317V12.9998C18.3337 17.1665 16.667 18.8332 12.5003 18.8332H7.50033C3.33366 18.8332 1.66699 17.1665 1.66699 12.9998V7.99984C1.66699 3.83317 3.33366 2.1665 7.50033 2.1665H11.667"
            stroke="currentColor" stroke-width="1.25" stroke-linecap="round"
            stroke-linejoin="round"></path>
         <path
            d="M18.3337 8.83317H15.0003C12.5003 8.83317 11.667 7.99984 11.667 5.49984V2.1665L18.3337 8.83317Z"
            stroke="currentColor" stroke-width="1.25" stroke-linecap="round"
            stroke-linejoin="round"></path>
         <path d="M5.83301 11.3335H10.833" stroke="currentColor" stroke-width="1.25"
            stroke-linecap="round" stroke-linejoin="round"></path>
         <path d="M5.83301 14.6665H9.16634" stroke="currentColor" stroke-width="1.25"
            stroke-linecap="round" stroke-linejoin="round"></path>
      </symbol>

      <symbol xmlns="http://www.w3.org/2000/svg" viewBox="0 0 24 24"
         id="star">
         <path fill="currentColor"
            d="m12 17.275l-4.15 2.5q-.275.175-.575.15t-.525-.2t-.35-.437t-.05-.588l1.1-4.725L3.775 10.8q-.25-.225-.312-.513t.037-.562t.3-.45t.55-.225l4.85-.425l1.875-4.45q.125-.3.388-.45t.537-.15t.537.15t.388.45l1.875 4.45l4.85.425q.35.05.55.225t.3.45t.038.563t-.313.512l-3.675 3.175l1.1 4.725q.075.325-.05.588t-.35.437t-.525.2t-.575-.15z"></path>
      </symbol>

      <symbol fill="none" xmlns="http://www.w3.org/2000/svg" viewBox="0 0 16 17" id="eye">
         <path
            d="M10.3866 8.49995C10.3866 9.81995 9.31995 10.8866 7.99995 10.8866C6.67995 10.8866 5.61328 9.81995 5.61328 8.49995C5.61328 7.17995 6.67995 6.11328 7.99995 6.11328C9.31995 6.11328 10.3866 7.17995 10.3866 8.49995Z"
            stroke="currentCOlor" stroke-width="1.25" stroke-linecap="round" stroke-linejoin="round"></path>
         <path
            d="M7.9999 14.0133C10.3532 14.0133 12.5466 12.6266 14.0732 10.2266C14.6732 9.28665 14.6732 7.70665 14.0732 6.76665C12.5466 4.36665 10.3532 2.97998 7.9999 2.97998C5.64656 2.97998 3.45323 4.36665 1.92656 6.76665C1.32656 7.70665 1.32656 9.28665 1.92656 10.2266C3.45323 12.6266 5.64656 14.0133 7.9999 14.0133Z"
            stroke="currentCOlor" stroke-width="1.25" stroke-linecap="round" stroke-linejoin="round"></path>
      </symbol>

      <symbol fill="none" xmlns="http://www.w3.org/2000/svg" viewBox="0 0 16 17" id="trash">
         <path
            d="M14.001 4.48617C11.781 4.26617 9.54764 4.15283 7.32098 4.15283C6.00098 4.15283 4.68098 4.2195 3.36098 4.35283L2.00098 4.48617"
            stroke="currentColor" stroke-width="1.03125" stroke-linecap="round"
            stroke-linejoin="round"></path>
         <path
            d="M5.66602 3.8135L5.81268 2.94016C5.91935 2.30683 5.99935 1.8335 7.12602 1.8335H8.87268C9.99935 1.8335 10.086 2.3335 10.186 2.94683L10.3327 3.8135"
            stroke="currentColor" stroke-width="1.03125" stroke-linecap="round"
            stroke-linejoin="round"></path>
         <path
            d="M12.565 6.59375L12.1316 13.3071C12.0583 14.3537 11.9983 15.1671 10.1383 15.1671H5.85831C3.99831 15.1671 3.93831 14.3537 3.86497 13.3071L3.43164 6.59375"
            stroke="currentColor" stroke-width="1.03125" stroke-linecap="round"
            stroke-linejoin="round"></path>
         <path d="M6.88574 11.5H9.10574" stroke="currentColor" stroke-width="1.03125"
            stroke-linecap="round" stroke-linejoin="round"></path>
         <path d="M6.33203 8.83301H9.66536" stroke="currentColor" stroke-width="1.03125"
            stroke-linecap="round" stroke-linejoin="round"></path>
      </symbol>

      <symbol fill="none" xmlns="http://www.w3.org/2000/svg" viewBox="0 0 18 18" id="edit">
         <path
            d="M9.91853 2.8755L3.93207 9.21196C3.70603 9.45259 3.48728 9.92655 3.44353 10.2547L3.17374 12.6172C3.07895 13.4703 3.69145 14.0536 4.53728 13.9078L6.8852 13.5068C7.21332 13.4484 7.6727 13.2078 7.89874 12.9599L13.8852 6.62342C14.9206 5.52967 15.3873 4.2828 13.7758 2.75884C12.1717 1.24946 10.9539 1.78175 9.91853 2.8755Z"
            stroke="currentColor" stroke-width="1.09375" stroke-miterlimit="10"
            stroke-linecap="round"
            stroke-linejoin="round"></path>
         <path d="M8.91992 3.93262C9.23346 5.94512 10.8668 7.48366 12.8939 7.68783"
            stroke="currentColor" stroke-width="1.09375" stroke-miterlimit="10"
            stroke-linecap="round"
            stroke-linejoin="round"></path>
         <path d="M2.4375 16.292H15.5625" stroke="currentColor" stroke-width="1.09375"
            stroke-miterlimit="10" stroke-linecap="round" stroke-linejoin="round"></path>
      </symbol>

      <symbol xmlns="http://www.w3.org/2000/svg" fill="none" stroke="currentColor"
         stroke-width="2" stroke-linecap="round" stroke-linejoin="round" viewBox="0 0 24 24"
         id="eye-off">
         <path
            d="M10.733 5.076a10.744 10.744 0 0 1 11.205 6.575 1 1 0 0 1 0 .696 10.747 10.747 0 0 1-1.444 2.49"></path>
         <path d="M14.084 14.158a3 3 0 0 1-4.242-4.242"></path>
         <path
            d="M17.479 17.499a10.75 10.75 0 0 1-15.417-5.151 1 1 0 0 1 0-.696 10.75 10.75 0 0 1 4.446-5.143"></path>
         <path d="m2 2 20 20"></path>
      </symbol>

      <symbol fill="none" xmlns="http://www.w3.org/2000/svg" viewBox="0 0 16 16" id="eye">
         <path
            d="M10.3866 7.99995C10.3866 9.31995 9.31995 10.3866 7.99995 10.3866C6.67995 10.3866 5.61328 9.31995 5.61328 7.99995C5.61328 6.67995 6.67995 5.61328 7.99995 5.61328C9.31995 5.61328 10.3866 6.67995 10.3866 7.99995Z"
            stroke="currentColor" stroke-width="1.25" stroke-linecap="round" stroke-linejoin="round"></path>
         <path
            d="M7.9999 13.5138C10.3532 13.5138 12.5466 12.1271 14.0732 9.72714C14.6732 8.78714 14.6732 7.20714 14.0732 6.26714C12.5466 3.86714 10.3532 2.48047 7.9999 2.48047C5.64656 2.48047 3.45323 3.86714 1.92656 6.26714C1.32656 7.20714 1.32656 8.78714 1.92656 9.72714C3.45323 12.1271 5.64656 13.5138 7.9999 13.5138Z"
            stroke="currentColor" stroke-width="1.25" stroke-linecap="round" stroke-linejoin="round"></path>
      </symbol>

   </def>
</svg>